<?xml version="1.0" encoding="UTF-8"?>
<svg xmlns="http://www.w3.org/2000/svg" version="1.1" viewBox="0 0 2000 448">
  <defs>
    <style>
      .cls-1 {
        fill: #1a1a2e;
      }

      .cls-1, .cls-2 {
        display: none;
      }

      .cls-3 {
        fill: #a3ff69;
      }

      .cls-2, .cls-4 {
        fill: #f5f5f5;
      }
    </style>
  </defs>
  <!-- Generator: Adobe Illustrator 28.7.1, SVG Export Plug-In . SVG Version: 1.2.0 Build 142)  -->
  <g>
    <g id="Layer_1">
      <rect class="cls-1" x="3" y="-777" width="1997" height="2002"/>
      <rect class="cls-2" x="2047" y="-780" width="2001" height="2009"/>
      <rect class="cls-4" x="681.4" y="164.2" width="69.5" height="69.5"/>
      <rect class="cls-4" x="611.9" y="94.7" width="69.5" height="69.5"/>
      <rect class="cls-3" x="472.8" y="25.2" width="69.5" height="69.5"/>
      <rect class="cls-3" x="472.8" y="164.2" width="69.5" height="69.5"/>
      <rect class="cls-3" x="1030.8" y="164.2" width="69.5" height="69.5"/>
      <rect class="cls-4" x="750.9" y="94.7" width="69.5" height="69.5"/>
      <rect class="cls-3" x="961.2" y="94.7" width="69.5" height="69.5"/>
      <rect class="cls-3" x="1030.8" y="94.7" width="69.5" height="69.5"/>
      <rect class="cls-3" x="961.2" y="233.8" width="69.5" height="69.5"/>
      <rect class="cls-3" x="1030.8" y="233.8" width="69.5" height="69.5"/>
      <rect class="cls-3" x="1169.8" y="233.8" width="69.5" height="69.5"/>
      <rect class="cls-3" x="1239.3" y="233.8" width="69.5" height="69.5"/>
      <rect class="cls-3" x="1308.9" y="233.8" width="69.5" height="69.5"/>
      <rect class="cls-3" x="1169.8" y="164.2" width="69.5" height="69.5"/>
      <rect class="cls-3" x="1308.9" y="164.2" width="69.5" height="69.5"/>
      <rect class="cls-3" x="1169.8" y="94.7" width="69.5" height="69.5"/>
      <rect class="cls-3" x="1169.8" y="25.2" width="69.5" height="69.5"/>
      <rect class="cls-3" x="1449.6" y="233.8" width="69.5" height="69.5"/>
      <rect class="cls-3" x="1729.5" y="233.8" width="69.5" height="69.5"/>
      <rect class="cls-3" x="1660" y="233.8" width="69.5" height="69.5"/>
      <rect class="cls-3" x="1660" y="303.3" width="69.5" height="69.5"/>
      <rect class="cls-3" x="1590.4" y="233.8" width="69.5" height="69.5"/>
      <rect class="cls-3" x="1449.6" y="164.2" width="69.5" height="69.5"/>
      <rect class="cls-3" x="1729.5" y="164.2" width="69.5" height="69.5"/>
      <rect class="cls-3" x="1590.4" y="164.2" width="69.5" height="69.5"/>
      <rect class="cls-3" x="1590.4" y="94.7" width="69.5" height="69.5"/>
      <rect class="cls-3" x="1449.6" y="94.7" width="69.5" height="69.5"/>
      <rect class="cls-3" x="1729.5" y="94.7" width="69.5" height="69.5"/>
      <rect class="cls-3" x="1449.6" y="25.2" width="69.5" height="69.5"/>
      <rect class="cls-3" x="1239.3" y="94.7" width="69.5" height="69.5"/>
      <rect class="cls-4" x="611.9" y="233.8" width="69.5" height="69.5"/>
      <rect class="cls-3" x="472.8" y="233.8" width="69.5" height="69.5"/>
      <rect class="cls-3" x="262.5" y="94.7" width="69.5" height="69.5"/>
      <rect class="cls-3" x="262.5" y="233.8" width="69.5" height="69.5"/>
      <rect class="cls-3" x="332" y="164.2" width="69.5" height="69.5"/>
      <rect class="cls-3" x="891.7" y="164.2" width="69.5" height="69.5"/>
      <rect class="cls-3" x="891.7" y="233.8" width="69.5" height="69.5"/>
      <rect class="cls-3" x="193" y="164.2" width="69.5" height="69.5"/>
      <rect class="cls-3" x="193" y="233.8" width="69.5" height="69.5"/>
      <rect class="cls-3" x="193" y="303.3" width="69.5" height="69.5"/>
      <rect class="cls-4" x="750.9" y="233.8" width="69.5" height="69.5"/>
    </g>
  </g>
</svg>